<?xml version="1.0" encoding="UTF-8" standalone="no"?>
<!-- Created with Inkscape (http://www.inkscape.org/) -->

<svg
   xmlns:dc="http://purl.org/dc/elements/1.1/"
   xmlns:cc="http://creativecommons.org/ns#"
   xmlns:rdf="http://www.w3.org/1999/02/22-rdf-syntax-ns#"
   xmlns:svg="http://www.w3.org/2000/svg"
   xmlns="http://www.w3.org/2000/svg"
   xmlns:sodipodi="http://sodipodi.sourceforge.net/DTD/sodipodi-0.dtd"
   xmlns:inkscape="http://www.inkscape.org/namespaces/inkscape"
   width="210mm"
   height="297mm"
   viewBox="0 0 210 297"
   version="1.1"
   id="svg8"
   inkscape:version="0.92.3 (2405546, 2018-03-11)"
   sodipodi:docname="canalP.svg">
  <defs
     id="defs2">
    <marker
       inkscape:isstock="true"
       style="overflow:visible;"
       id="marker1409"
       refX="0.0"
       refY="0.0"
       orient="auto"
       inkscape:stockid="Arrow1Mend">
      <path
         transform="scale(0.4) rotate(180) translate(10,0)"
         style="fill-rule:evenodd;stroke:#000000;stroke-width:1pt;stroke-opacity:1;fill:#000000;fill-opacity:1"
         d="M 0.0,0.0 L 5.0,-5.0 L -12.5,0.0 L 5.0,5.0 L 0.0,0.0 z "
         id="path1407" />
    </marker>
    <marker
       inkscape:stockid="Arrow1Mstart"
       orient="auto"
       refY="0.0"
       refX="0.0"
       id="marker1351"
       style="overflow:visible"
       inkscape:isstock="true">
      <path
         id="path1349"
         d="M 0.0,0.0 L 5.0,-5.0 L -12.5,0.0 L 5.0,5.0 L 0.0,0.0 z "
         style="fill-rule:evenodd;stroke:#000000;stroke-width:1pt;stroke-opacity:1;fill:#000000;fill-opacity:1"
         transform="scale(0.4) translate(10,0)" />
    </marker>
    <clipPath
       id="clipPath837"
       clipPathUnits="userSpaceOnUse">
      <path
         inkscape:connector-curvature="0"
         id="path835"
         d="M 0,0 H 362 V 254 H 0 Z" />
    </clipPath>
    <clipPath
       id="clipPath875"
       clipPathUnits="userSpaceOnUse">
      <path
         inkscape:connector-curvature="0"
         id="path873"
         d="M 0,0 H 362 V 254 H 0 Z" />
    </clipPath>
  </defs>
  <sodipodi:namedview
     id="base"
     pagecolor="#ffffff"
     bordercolor="#666666"
     borderopacity="1.0"
     inkscape:pageopacity="0.0"
     inkscape:pageshadow="2"
     inkscape:zoom="16"
     inkscape:cx="439.60357"
     inkscape:cy="876.3764"
     inkscape:document-units="mm"
     inkscape:current-layer="layer1"
     showgrid="false"
     inkscape:snap-intersection-paths="true"
     inkscape:snap-smooth-nodes="true"
     inkscape:window-width="1920"
     inkscape:window-height="1016"
     inkscape:window-x="0"
     inkscape:window-y="27"
     inkscape:window-maximized="1" />
  <metadata
     id="metadata5">
    <rdf:RDF>
      <cc:Work
         rdf:about="">
        <dc:format>image/svg+xml</dc:format>
        <dc:type
           rdf:resource="http://purl.org/dc/dcmitype/StillImage" />
        <dc:title />
      </cc:Work>
    </rdf:RDF>
  </metadata>
  <g
     inkscape:label="Layer 1"
     inkscape:groupmode="layer"
     id="layer1">
    <text
       id="text1773"
       y="30.030203"
       x="88.793579"
       style="font-style:normal;font-weight:normal;font-size:1.6092006px;line-height:1.25;font-family:sans-serif;letter-spacing:0px;word-spacing:0px;fill:#000000;fill-opacity:1;stroke:none;stroke-width:0.04023001"
       xml:space="preserve"><tspan
         style="stroke-width:0.04023001"
         y="30.030203"
         x="88.793579"
         id="tspan1771"
         sodipodi:role="line">$y$</tspan></text>
    <g
       transform="matrix(0.35277777,0,0,-0.35277777,30.689886,105.5475)"
       inkscape:label="canalP"
       id="g865">
      <g
         transform="translate(-17,-14)"
         id="g867">
        <g
           id="g869">
          <g
             clip-path="url(#clipPath875)"
             id="g871">
            <g
               transform="scale(0.1)"
               id="g877">
              <path
                 inkscape:connector-curvature="0"
                 id="path879"
                 style="fill:none;stroke:#000000;stroke-width:2.5;stroke-linecap:butt;stroke-linejoin:miter;stroke-miterlimit:3.79999995;stroke-dasharray:5, 10;stroke-dashoffset:0;stroke-opacity:1"
                 d="M 171.801,1272 H 3408.3" />
              <path
                 inkscape:connector-curvature="0"
                 id="path881"
                 style="fill:none;stroke:#000000;stroke-width:2.5;stroke-linecap:butt;stroke-linejoin:miter;stroke-miterlimit:3.79999995;stroke-dasharray:5, 10;stroke-dashoffset:0;stroke-opacity:1"
                 d="M 1790.3,144 V 2399.5" />
              <path
                 inkscape:connector-curvature="0"
                 id="path883"
                 style="fill:none;stroke:#000000;stroke-width:5;stroke-linecap:butt;stroke-linejoin:miter;stroke-miterlimit:3.79999995;stroke-dasharray:none;stroke-opacity:1"
                 d="m 218.301,1284.5 -46.5,-12.5 46.5,-12.5 m 115.5,12.5 h -162" />
              <path
                 inkscape:connector-curvature="0"
                 id="path885"
                 style="fill:none;stroke:#000000;stroke-width:5;stroke-linecap:butt;stroke-linejoin:miter;stroke-miterlimit:3.79999995;stroke-dasharray:none;stroke-opacity:1"
                 d="m 3361.8,1259.5 46.5,12.5 -46.5,12.5 M 3246.3,1272 h 162" />
              <path
                 inkscape:connector-curvature="0"
                 id="path887"
                 style="fill:none;stroke:#000000;stroke-width:5;stroke-linecap:butt;stroke-linejoin:miter;stroke-miterlimit:3.79999995;stroke-dasharray:none;stroke-opacity:1"
                 d="m 1781.8,176.5 8.5,-32.5 8.5,32.5 m -8.5,80.5 V 144" />
              <path
                 inkscape:connector-curvature="0"
                 id="path889"
                 style="fill:none;stroke:#000000;stroke-width:5;stroke-linecap:butt;stroke-linejoin:miter;stroke-miterlimit:3.79999995;stroke-dasharray:none;stroke-opacity:1"
                 d="m 1798.8,2367 -8.5,32.5 -8.5,-32.5 m 8.5,-80.5 v 113" />
              <path
                 inkscape:connector-curvature="0"
                 id="path891"
                 style="fill:none;stroke:#9400d4;stroke-width:5;stroke-linecap:butt;stroke-linejoin:miter;stroke-miterlimit:3.79999995;stroke-dasharray:none;stroke-opacity:1"
                 d="m 171.801,1585 32.5,-29.5 33,-29 32.5,-28.5 33,-28 32.5,-27 32.5,-27 33,-26 32.5,-25.5 32.5,-24.5 33,-24.5 32.5,-23.5 33,-23 32.5,-22.5 32.5,-21.5 33,-21.5 32.5,-20.5 33,-20 32.5,-19.5 32.5,-18.5 33,-18.5 32.5,-17.5 32.5,-17 33,-16 32.5,-16 33,-15 32.499,-14.5 32.5,-14 33,-13.5 32.5,-12.5 33,-12 32.5,-11.5 32.5,-11 33,-10.5 32.5,-9.5 32.5,-9 33,-8.5 32.5,-8 33,-7 32.5,-7 32.5,-6 33,-5.5 32.5,-5 33,-4 32.5,-3.5 32.5,-3 33,-2.5 32.5,-2 32.5,-1 33,-0.5 h 32.5 l 33,0.5 32.5,1 32.5,2 33,2.5 32.5,3 32.5,3.5 33,4 32.5,5 33,5.5 32.5,6 32.5,7 33,7 32.5,8 33,8.5 32.5,9 32.5,9.5 33,10.5 32.5,11 32.5,11.5 33,12 32.5,12.5 33,13.5 32.5,14 32.5,14.5 33,15 32.5,16 33,16 32.5,17 32.5,17.5 33,18.5 32.5,18.5 32.5,19.5 33,20 32.5,20.5 33,21.5 32.5,21.5 32.5,22.5 33,23 32.5,23.5 33,24.5 32.5,24.5 32.5,25.5 33,26 32.5,27 32.5,27 33,28 32.5,28.5 33,29 32.5,29.5" />
            </g>
          </g>
        </g>
      </g>
    </g>
    <text
       xml:space="preserve"
       style="font-style:normal;font-weight:normal;font-size:1.6092006px;line-height:1.25;font-family:sans-serif;letter-spacing:0px;word-spacing:0px;fill:#000000;fill-opacity:1;stroke:none;stroke-width:0.04023001"
       x="138.53525"
       y="69.717705"
       id="text921"><tspan
         sodipodi:role="line"
         id="tspan919"
         x="138.53525"
         y="69.717705"
         style="stroke-width:0.04023001">$x$</tspan></text>
    <path
       style="fill:none;stroke:#000000;stroke-width:0.26458332px;stroke-linecap:butt;stroke-linejoin:miter;stroke-opacity:1"
       d="m 87.850468,65.613057 38.629162,3.13972"
       id="path923"
       inkscape:connector-curvature="0" />
    <path
       style="opacity:1;fill:none;fill-opacity:1;stroke:#000000;stroke-width:0.26499999;stroke-miterlimit:4;stroke-dasharray:none;stroke-dashoffset:0;stroke-opacity:1"
       id="path925"
       sodipodi:type="arc"
       sodipodi:cx="87.850471"
       sodipodi:cy="65.61306"
       sodipodi:rx="2.8442709"
       sodipodi:ry="2.8442709"
       sodipodi:start="0.1066456"
       sodipodi:end="1.6073494"
       d="m 90.678583,65.915814 a 2.8442709,2.8442709 0 0 1 -2.932055,2.539617"
       sodipodi:open="true" />
    <path
       style="opacity:1;fill:#000000;fill-opacity:1;stroke:none;stroke-width:0.26499999;stroke-miterlimit:4;stroke-dasharray:none;stroke-dashoffset:0;stroke-opacity:1"
       id="path927"
       sodipodi:type="arc"
       sodipodi:cx="87.850471"
       sodipodi:cy="65.61306"
       sodipodi:rx="0.56223965"
       sodipodi:ry="0.56223965"
       sodipodi:start="1.7182793"
       sodipodi:end="1.6073488"
       d="m 87.767851,66.169196 a 0.56223965,0.56223965 0 0 1 -0.475593,-0.623304 0.56223965,0.56223965 0 0 1 0.609877,-0.492693 0.56223965,0.56223965 0 0 1 0.509415,0.59598 0.56223965,0.56223965 0 0 1 -0.581625,0.525745"
       sodipodi:open="true" />
    <path
       d="m 126.46285,69.314766 a 0.56223965,0.56223965 0 0 1 -0.5454,-0.570391 0.56223965,0.56223965 0 0 1 0.5622,-0.553838 0.56223965,0.56223965 0 0 1 0.56216,0.553887 0.56223965,0.56223965 0 0 1 -0.54545,0.570344"
       sodipodi:end="1.5410392"
       sodipodi:start="1.6006405"
       sodipodi:ry="0.56223965"
       sodipodi:rx="0.56223965"
       sodipodi:cy="68.752777"
       sodipodi:cx="126.47963"
       sodipodi:type="arc"
       id="path929"
       style="opacity:1;fill:#000000;fill-opacity:1;stroke:none;stroke-width:0.26499999;stroke-miterlimit:4;stroke-dasharray:none;stroke-dashoffset:0;stroke-opacity:1"
       sodipodi:open="true" />
    <text
       xml:space="preserve"
       style="font-style:normal;font-weight:normal;font-size:1.6092006px;line-height:1.25;font-family:sans-serif;letter-spacing:0px;word-spacing:0px;fill:#000000;fill-opacity:1;stroke:none;stroke-width:0.04023001"
       x="89.45504"
       y="70.544525"
       id="text933"><tspan
         sodipodi:role="line"
         id="tspan931"
         x="89.45504"
         y="70.544525"
         style="stroke-width:0.04023001">$\psi = 80^\circ$</tspan></text>
    <text
       id="text937"
       y="64.095306"
       x="103.08107"
       style="font-style:normal;font-weight:normal;font-size:1.6092006px;line-height:1.25;font-family:sans-serif;letter-spacing:0px;word-spacing:0px;fill:#000000;fill-opacity:1;stroke:none;stroke-width:0.04023001"
       xml:space="preserve"><tspan
         style="stroke-width:0.04023001"
         y="64.095306"
         x="103.08107"
         id="tspan935"
         sodipodi:role="line">$\rho_b$</tspan></text>
    <path
       style="fill:none;stroke:#000000;stroke-width:0.265;stroke-linecap:butt;stroke-linejoin:miter;stroke-opacity:1;stroke-miterlimit:4;stroke-dasharray:none;marker-start:url(#marker1351);marker-end:url(#marker1409)"
       d="M 126.47963,90.977791 H 87.444791"
       id="path939"
       inkscape:connector-curvature="0" />
    <path
       style="fill:none;stroke:#000000;stroke-width:0.26458332;stroke-linecap:butt;stroke-linejoin:miter;stroke-opacity:1;stroke-miterlimit:4;stroke-dasharray:0.79374995,0.79374995;stroke-dashoffset:0"
       d="M 126.47963,68.752777 V 97.76875"
       id="path941"
       inkscape:connector-curvature="0" />
    <text
       id="text975"
       y="89.462227"
       x="103.61025"
       style="font-style:normal;font-weight:normal;font-size:1.6092006px;line-height:1.25;font-family:sans-serif;letter-spacing:0px;word-spacing:0px;fill:#000000;fill-opacity:1;stroke:none;stroke-width:0.04023001"
       xml:space="preserve"><tspan
         style="stroke-width:0.04023001"
         y="89.462227"
         x="103.61025"
         id="tspan973"
         sodipodi:role="line">$x_b$</tspan></text>
    <text
       id="text979"
       y="70.395699"
       x="127.58811"
       style="font-style:normal;font-weight:normal;font-size:1.6092006px;line-height:1.25;font-family:sans-serif;letter-spacing:0px;word-spacing:0px;fill:#000000;fill-opacity:1;stroke:none;stroke-width:0.04023001"
       xml:space="preserve"><tspan
         style="stroke-width:0.04023001"
         y="70.395699"
         x="127.58811"
         id="tspan977"
         sodipodi:role="line">$(x,y)$</tspan></text>
  </g>
</svg>
